<?xml version="1.0" encoding="UTF-8" standalone="no"?>
<!-- Created with Inkscape (http://www.inkscape.org/) -->

<svg
   width="210mm"
   height="297mm"
   viewBox="0 0 210 297"
   version="1.1"
   id="svg1"
   inkscape:export-filename="logo.png"
   inkscape:export-xdpi="96"
   inkscape:export-ydpi="96"
   inkscape:version="1.3.2 (091e20e, 2023-11-25, custom)"
   sodipodi:docname="logo.svg"
   xmlns:inkscape="http://www.inkscape.org/namespaces/inkscape"
   xmlns:sodipodi="http://sodipodi.sourceforge.net/DTD/sodipodi-0.dtd"
   xmlns="http://www.w3.org/2000/svg"
   xmlns:svg="http://www.w3.org/2000/svg">
  <sodipodi:namedview
     id="namedview1"
     pagecolor="#505050"
     bordercolor="#eeeeee"
     borderopacity="1"
     inkscape:showpageshadow="0"
     inkscape:pageopacity="0"
     inkscape:pagecheckerboard="0"
     inkscape:deskcolor="#505050"
     inkscape:document-units="mm"
     inkscape:zoom="0.70710678"
     inkscape:cx="335.16861"
     inkscape:cy="625.08239"
     inkscape:window-width="1404"
     inkscape:window-height="898"
     inkscape:window-x="191"
     inkscape:window-y="88"
     inkscape:window-maximized="0"
     inkscape:current-layer="layer1" />
  <defs
     id="defs1">
    <clipPath
       clipPathUnits="userSpaceOnUse"
       id="clipPath377">
      <path
         id="path378"
         style="fill:#ff0000;fill-opacity:1;fill-rule:nonzero;stroke:none;stroke-width:0.264583"
         d="m 90.975841,244.14634 v 2.13475 c 0.387845,-0.13857 0.775698,-0.28008 1.16272,-0.41703 1.925092,-0.64505 3.876646,-1.1985 5.837372,-1.71772 z m 66.341169,0.92656 c -0.3119,0.56985 -0.70812,1.13106 -1.17512,1.67793 0.0351,0.0798 0.0674,0.1612 0.10542,0.23926 0.11613,0.32009 0.24215,0.63662 0.3483,0.96015 0.336,1.02403 0.5615,2.0796 0.7214,3.14554 z" />
    </clipPath>
    <clipPath
       clipPathUnits="userSpaceOnUse"
       id="clipPath503">
      <path
         id="path504"
         style="fill:#ff0000;fill-opacity:1;fill-rule:nonzero;stroke:none;stroke-width:0.264583"
         d="m 142.11123,235.06999 v 44.84058 h 13.64506 c -0.58806,-0.53364 -1.13023,-1.11874 -1.64526,-1.72644 -0.97535,-1.18615 -1.64049,-2.54157 -2.19104,-3.96418 -0.46282,-1.27135 -0.70704,-2.60198 -0.84127,-3.94387 -0.0952,-1.19023 0.0158,-2.37883 0.3741,-3.51971 0.0769,-0.24466 0.17427,-0.48229 0.26137,-0.72349 0.48757,-1.24098 1.2829,-2.3186 2.2884,-3.19058 0.21048,-0.18252 0.43638,-0.34611 0.65467,-0.51919 1.27716,-0.9465 2.7438,-1.58118 4.26801,-2.01088 0.33855,-0.0954 0.682,-0.17154 1.02312,-0.25734 1.24705,-0.27583 2.51378,-0.44232 3.78005,-0.59888 0.0749,-0.009 0.14573,-0.0132 0.21235,-0.0124 0.0364,2.3e-4 0.0642,0.009 0.0971,0.0129 0.0133,-0.009 0.0321,-0.0148 0.0569,-0.0149 0.0429,-7e-5 0.0858,-2.3e-4 0.12854,-9.2e-4 0.06,-0.003 0.11982,-0.005 0.17982,-0.007 0.0726,-0.001 0.14494,-0.002 0.21754,-0.002 0.0824,10e-4 0.16484,-9.3e-4 0.24714,-0.004 0.0845,-0.002 0.16884,-0.005 0.25324,-0.009 0.0848,-0.005 0.16992,-0.005 0.25482,-0.008 0.0934,-0.003 0.18659,-0.007 0.27989,-0.0129 0.10358,-0.007 0.20706,-0.0142 0.31062,-0.0212 0.12534,-0.008 0.25104,-0.0157 0.37636,-0.0237 0.16694,-0.0109 0.33399,-0.019 0.50105,-0.028 0.13147,-0.007 0.26326,-0.0136 0.39488,-0.0176 0.0139,-0.001 0.0272,-0.001 0.0411,-0.002 0.0134,-8e-4 0.0249,3.5e-4 0.035,0.003 h 6.9e-4 c 0.0486,-10e-4 0.10278,-0.009 0.14978,-0.008 0.12418,0.003 0.23069,0.0253 0.34314,0.0415 0.0507,-1.33783 0.10903,-2.67563 0.18028,-4.01272 0.007,-0.12774 0.0106,-0.21037 0.016,-0.31536 -0.14461,0.007 -0.23627,0.0123 -0.7229,0.0368 -0.11448,0.005 -0.21749,0.008 -0.32711,0.0133 -0.60828,0.055 -1.2171,0.10607 -1.82688,0.13657 -0.13733,0.007 -0.27482,0.008 -0.41228,0.0124 -0.18451,-0.002 -0.3809,0.007 -0.56589,-0.0298 -0.0488,0.002 -0.0918,0.009 -0.14571,0.005 -0.10019,-0.007 -0.20048,-0.0142 -0.30067,-0.0212 -0.83407,-0.0674 -1.66812,-0.15946 -2.48314,-0.35599 -1.04094,-0.27205 -2.04918,-0.64238 -2.96206,-1.22327 -0.98281,-0.64014 -1.91138,-1.3651 -2.6573,-2.27928 -0.83272,-1.03045 -1.58763,-2.13521 -2.02365,-3.39781 -0.42377,-1.27289 -0.75015,-2.5764 -0.85098,-3.91903 -0.0981,-1.16795 -0.2021,-2.3506 0.0269,-3.51091 0.21882,-1.09891 0.5401,-2.17203 1.18961,-3.10231 0.5066,-0.6931 1.06977,-1.33578 1.76047,-1.84022 0.12306,-0.13901 0.26084,-0.23079 0.40256,-0.28059 l 0.009,-0.006 c 0.10393,-0.0602 0.20878,-0.12018 0.31378,-0.17879 z m 18.54198,9.3e-4 c 0.10995,0.12921 0.17761,0.24286 0.21551,0.34786 0.53002,-0.12854 1.06355,-0.24061 1.59827,-0.34786 z m 12.29957,0 c 0.21885,0.14551 0.42652,0.31117 0.62485,0.45981 0.84683,0.67176 1.67993,1.3595 2.53352,2.02262 0.32035,0.24205 0.64127,0.48359 0.96235,0.72461 0.53946,0.0249 0.96024,-0.0434 0.49089,-0.65215 -0.0151,-0.0195 -0.0663,-0.0709 -0.045,-0.0585 0.0459,0.0267 0.0805,0.0688 0.12131,0.10293 0.0635,0.0531 0.12744,0.10541 0.19134,0.15801 0.35447,0.29205 0.70845,0.58407 1.05882,0.88106 1.3565,1.1286 2.63726,2.34414 3.90204,3.57343 0.82472,0.81711 1.63025,1.6559 2.35324,2.56574 0.42879,0.53964 0.47621,0.62655 0.86476,1.18558 0.74414,1.10704 1.28487,2.3268 1.78735,3.55695 0.064,0.16315 0.126,0.32694 0.18863,0.49076 V 235.0709 Z m -14.9754,9.07171 c -2.3e-4,5.8e-4 -1.1e-4,0.001 -4.6e-4,0.002 h 4.6e-4 c 4e-5,-5.7e-4 -5e-5,-0.001 0,-0.002 z m 30.00954,22.11193 c -0.15622,0.38328 -0.31666,0.76487 -0.48366,1.14359 -0.19788,0.44834 -0.10429,0.23445 -0.28102,0.64222 -0.68716,1.58549 -1.82539,2.04406 -2.63495,1.71719 -0.25538,0.57478 -0.50973,1.15028 -0.77733,1.71945 -0.34642,0.71515 -0.69959,1.42725 -1.0918,2.11877 -0.40458,0.69988 -0.83018,1.3881 -1.32447,2.02916 -0.5401,0.70731 -1.10822,1.39277 -1.76748,1.99372 -0.68672,0.60584 -1.41962,1.16853 -2.25203,1.56165 -0.33291,0.15663 -0.45636,0.22006 -0.80106,0.3596 -0.34834,0.141 -0.70518,0.25913 -1.06446,0.36954 h 12.47826 z m -30.35473,4.18157 c -8.1e-4,0.008 -8.1e-4,0.0163 -0.002,0.0248 1.2e-4,0 0.002,-0.007 0.002,-0.007 0.001,-0.006 2.3e-4,-0.009 9.3e-4,-0.0178 -2.4e-4,-8e-5 -8.1e-4,-3e-5 -9.3e-4,0 z m 2.18811,5.70304 c -0.006,0.003 -0.0116,0.006 -0.0176,0.008 -0.01,0.0159 -0.019,0.0323 -0.0285,0.0481 0.0154,-0.0185 0.0307,-0.0371 0.0461,-0.0557 z m -3.40347,2.71518 c 0.40784,0.38211 0.837,0.74079 1.30437,1.05419 h 1.23705 c -0.0375,-0.0116 -0.0757,-0.022 -0.11318,-0.0336 -0.7183,-0.23212 -1.43501,-0.48238 -2.10791,-0.82891 -0.10925,-0.0598 -0.21315,-0.12828 -0.32033,-0.19165 z" />
    </clipPath>
    <clipPath
       clipPathUnits="userSpaceOnUse"
       id="clipPath506">
      <path
         id="path507"
         style="fill:#ff0000;fill-opacity:1;fill-rule:nonzero;stroke:none;stroke-width:0.264583"
         d="m 142.11127,235.0698 14.31757,0.003 c -0.105,0.0586 -0.20985,0.11857 -0.31378,0.17877 l -0.009,0.006 c -0.14172,0.0498 -0.2795,0.14158 -0.40256,0.28059 -0.6907,0.50444 -1.25387,1.14711 -1.76047,1.84021 -0.64951,0.93028 -0.97079,2.00317 -1.18961,3.10209 -0.22897,1.16031 -0.12496,2.34296 -0.0269,3.51091 0.10083,1.34262 0.42721,2.64637 0.85098,3.91926 0.43602,1.2626 1.19094,2.36712 2.02364,3.39758 0.74595,0.91418 1.6745,1.63936 2.65732,2.2795 0.91288,0.58088 1.9211,0.95123 2.96205,1.22327 0.81501,0.19653 1.64907,0.28859 2.48313,0.35599 0.10021,0.007 0.20049,0.0142 0.30069,0.0212 0.0539,0.004 0.0969,-0.003 0.14569,-0.005 0.18499,0.0365 0.38139,0.0276 0.5659,0.0296 0.13746,-0.004 0.27495,-0.005 0.41228,-0.0124 0.60978,-0.0305 1.21862,-0.0816 1.82688,-0.13657 0.10962,-0.005 0.21263,-0.008 0.32711,-0.0133 0.48663,-0.0245 0.57828,-0.0298 0.7229,-0.0368 -0.005,0.10499 -0.009,0.18761 -0.016,0.31535 -0.0713,1.3371 -0.12957,2.67489 -0.18027,4.01272 -0.11246,-0.0162 -0.21896,-0.0385 -0.34316,-0.0415 -0.047,-0.001 -0.10116,0.007 -0.14978,0.008 h -6.9e-4 c -0.0101,-0.003 -0.0216,-0.004 -0.035,-0.003 -0.0139,10e-4 -0.0274,10e-4 -0.0413,0.002 -0.13162,0.004 -0.26341,0.0106 -0.39488,0.0176 -0.16706,0.009 -0.33434,0.0171 -0.50128,0.028 -0.12532,0.008 -0.25079,0.0157 -0.37613,0.0237 -0.10356,0.007 -0.20704,0.0142 -0.31062,0.0212 -0.0933,0.006 -0.18672,0.01 -0.28012,0.0129 -0.0849,0.003 -0.16979,0.003 -0.25459,0.008 -0.0844,0.004 -0.16874,0.007 -0.25324,0.009 -0.0823,0.003 -0.16474,0.005 -0.24714,0.004 -0.0726,0 -0.14495,10e-4 -0.21755,0.002 -0.06,0.002 -0.11982,0.004 -0.17982,0.007 -0.0428,6.9e-4 -0.0856,9.2e-4 -0.12854,9.2e-4 -0.0248,10e-5 -0.0434,0.006 -0.0567,0.0149 -0.0329,-0.004 -0.0607,-0.0126 -0.0971,-0.0129 -0.0666,-8.1e-4 -0.13745,0.003 -0.21235,0.0124 -1.26627,0.15656 -2.533,0.32306 -3.78005,0.59889 -0.34111,0.0858 -0.68479,0.16194 -1.02334,0.25734 -1.52421,0.4297 -2.99063,1.06415 -4.26778,2.01065 -0.21829,0.17308 -0.44442,0.3369 -0.6549,0.51942 -1.00551,0.87198 -1.80061,1.94958 -2.28818,3.19058 -0.0871,0.2412 -0.18447,0.47883 -0.26137,0.72349 -0.35834,1.14088 -0.46953,2.32925 -0.37433,3.51948 0.13423,1.34189 0.37868,2.67274 0.8415,3.94409 0.55057,1.42261 1.2157,2.77781 2.19104,3.96396 0.51503,0.6077 1.0572,1.19303 1.64526,1.72667 h -13.64506 z m 45.87569,9.2e-4 v 15.0109 c -0.0626,-0.16382 -0.12463,-0.32783 -0.18863,-0.49098 -0.50248,-1.23016 -1.04344,-2.44968 -1.78758,-3.55673 -0.38855,-0.55903 -0.43575,-0.64594 -0.86454,-1.18557 -0.72299,-0.90985 -1.52852,-1.74864 -2.35324,-2.56574 -1.26478,-1.22929 -2.54552,-2.44484 -3.90204,-3.57343 -0.35037,-0.29701 -0.70457,-0.58902 -1.05904,-0.88106 -0.0639,-0.0526 -0.12761,-0.10491 -0.19111,-0.15801 -0.0408,-0.0341 -0.0754,-0.0762 -0.12131,-0.10294 -0.0213,-0.0124 0.0297,0.039 0.045,0.0585 0.46935,0.60875 0.0486,0.67705 -0.49089,0.65215 -0.32108,-0.24104 -0.642,-0.48258 -0.96235,-0.72462 -0.85359,-0.66312 -1.68691,-1.35085 -2.53374,-2.02261 -0.19833,-0.14864 -0.40577,-0.3143 -0.62462,-0.45983 z m -25.51993,0 c -0.53472,0.10724 -1.06825,0.21933 -1.59827,0.34787 -0.0379,-0.10499 -0.10556,-0.21866 -0.21551,-0.34787 z m -4.48962,9.07173 c -5e-5,0.001 4e-5,0.002 0,0.002 h -4.6e-4 c 3.4e-4,-0.001 2.3e-4,-0.001 4.6e-4,-0.002 z m 30.00955,22.11192 v 13.65488 H 175.5087 c 0.35928,-0.1104 0.71612,-0.22853 1.06446,-0.36953 0.3447,-0.13954 0.46814,-0.20297 0.80105,-0.3596 0.83243,-0.39312 1.56532,-0.95581 2.25204,-1.56165 0.65926,-0.60095 1.22715,-1.28641 1.76725,-1.99372 0.49429,-0.64105 0.91989,-1.32951 1.32447,-2.02938 0.39221,-0.69152 0.7456,-1.40339 1.09202,-2.11856 0.2676,-0.56916 0.52173,-1.14466 0.77711,-1.71944 0.80956,0.32687 1.94801,-0.13171 2.63517,-1.71719 0.17673,-0.40777 0.0831,-0.19388 0.28103,-0.64222 0.167,-0.37872 0.32744,-0.76031 0.48366,-1.14359 z m -30.35383,4.18157 c -6.9e-4,0.009 1.2e-4,0.0118 -9.3e-4,0.0178 l -0.002,0.007 c 0.001,-0.008 0.001,-0.0168 0.002,-0.0248 2.4e-4,-3e-5 7e-4,-8e-5 9.3e-4,0 z m 2.18698,5.70304 v 2.3e-4 c -0.0154,0.0186 -0.0305,0.0375 -0.0459,0.056 0.01,-0.0158 0.0185,-0.0324 0.0285,-0.0483 0.006,-0.002 0.0114,-0.005 0.0174,-0.008 z m -3.40324,2.71495 c 0.10718,0.0634 0.21108,0.13208 0.32033,0.19188 0.6729,0.34653 1.38961,0.59679 2.10791,0.82891 0.0375,0.0116 0.0757,0.022 0.11318,0.0336 h -1.23728 c -0.46737,-0.3134 -0.8963,-0.67231 -1.30414,-1.05442 z" />
    </clipPath>
    <clipPath
       clipPathUnits="userSpaceOnUse"
       id="clipPath667">
      <path
         id="path668"
         style="fill:#ff0000;fill-opacity:1;fill-rule:nonzero;stroke:none;stroke-width:0.264583"
         d="m 92.010921,190.05972 v 75.54319 c 0.01672,0.16737 0.04436,0.33348 0.06976,0.49971 0.02574,0.14664 0.03873,0.22535 0.06925,0.37362 0.01421,0.0691 0.02627,0.13872 0.04496,0.20672 0.01138,0.0414 0.02421,0.0827 0.03772,0.12348 H 107.6203 c 0.0506,-0.16674 0.0981,-0.33446 0.14677,-0.50175 0.0489,-0.16233 0.0922,-0.32597 0.13229,-0.49041 0.009,-0.0627 0.0165,-0.12549 0.0259,-0.18812 v -75.56644 z m 0,76.56276 v 0.18396 h 0.04909 c -0.009,-0.0293 -0.01823,-0.0588 -0.02635,-0.0883 -0.0087,-0.0316 -0.01598,-0.0636 -0.02273,-0.0956 z" />
    </clipPath>
    <clipPath
       clipPathUnits="userSpaceOnUse"
       id="clipPath670">
      <path
         id="path671"
         style="fill:#ff0000;fill-opacity:1;fill-rule:nonzero;stroke:none;stroke-width:0.264583"
         d="m 92.031074,265.77086 c 0.01508,0.11078 0.03273,0.22125 0.04961,0.33176 0.02574,0.14664 0.03873,0.22535 0.06925,0.37362 0.01421,0.0691 0.02627,0.13872 0.04496,0.20672 0.02119,0.0771 0.04647,0.15343 0.07441,0.22839 0.07946,0.21323 0.11307,0.26429 0.216009,0.46664 0.157445,0.28845 0.353292,0.55195 0.555005,0.81029 0.100746,0.12906 -0.03001,0.23085 -0.130741,0.10181 -0.208232,-0.2668 -0.409993,-0.53906 -0.572058,-0.83717 -0.08924,-0.17618 -0.132638,-0.26085 -0.191204,-0.40825 -0.0016,0.0114 -0.0035,0.0225 -0.0057,0.0336 -0.003,0.0159 -5.3e-4,0.0352 -0.01138,0.047 -0.02753,0.0296 -0.05788,0.0678 -0.09819,0.0708 -0.03079,0.003 -0.04825,-0.0386 -0.07234,-0.0579 -0.0033,-0.0111 -0.0062,-0.0222 -0.0088,-0.0336 -0.02286,0.14425 -0.173661,0.12774 -0.161229,-0.0294 0.01212,-0.15248 0.01524,-0.30549 0.01654,-0.45839 1.59e-4,-0.0355 -0.0013,-0.071 -0.0016,-0.10644 -0.120131,-0.003 -0.138827,1e-4 -0.146246,-0.046 -0.01153,0.0274 -0.02825,0.0516 -0.05684,0.0574 -0.0035,0.008 -0.0071,0.0169 -0.01085,0.0254 -0.02326,0.0271 -0.03473,0.0741 -0.06976,0.0811 -0.143762,0.0291 -0.146066,-0.10448 -0.14986,-0.19015 -0.0034,-0.0778 -0.0011,-0.22074 -5.29e-4,-0.29353 7.4e-5,-0.009 -7.4e-5,-0.018 0,-0.0269 -0.02463,0 -0.05037,0.006 -0.07287,-0.003 -0.0108,-0.004 -0.02021,-0.0101 -0.02842,-0.0161 v 11.54089 h 17.210839 v -11.70419 c -0.009,0 -0.0186,0.003 -0.0279,0.003 0.005,0.0196 0.006,0.0344 0.009,0.0594 0.002,0.0479 7.9e-4,0.1119 -0.0646,0.11989 -0.01,0 -0.018,-2.4e-4 -0.0253,-0.003 -0.005,0.0188 -0.009,0.0378 -0.0145,0.0569 -0.005,0.0198 -0.0168,0.0631 -0.0248,0.0848 -0.003,0.008 -0.007,0.0167 -0.0103,0.0249 -0.01,0.009 -0.0164,0.0267 -0.0279,0.0294 0.007,0.14798 0.0159,0.29593 0.0232,0.44391 0.0197,0.47932 0.0101,0.2444 0.0248,0.70641 0.01,0.30197 -0.29386,0.3124 -0.30385,0.0103 -0.0144,-0.45378 -0.007,-0.23677 -0.0264,-0.6935 -0.005,0.0193 -0.009,0.0386 -0.015,0.0579 -0.0201,0.0755 -0.0413,0.15076 -0.063,0.22582 -0.002,0.0164 -0.002,0.0332 -0.004,0.0496 -0.003,0.0288 -0.007,0.0571 -0.01,0.0858 -0.003,0.0279 -0.0242,0.0317 -0.0336,0.0175 -0.0324,0.098 -0.0676,0.19513 -0.10852,0.2899 -0.0365,0.0813 -0.0747,0.16179 -0.11576,0.2408 -0.0618,0.11935 -0.15739,0.13216 -0.2067,0.0832 -0.0561,0.0942 -0.11664,0.18928 -0.1974,0.26405 -0.16993,0.1573 -0.28923,-0.01 -0.14005,-0.18706 0.0548,-0.0651 0.102,-0.13631 0.14469,-0.20981 0.099,-0.17177 0.17639,-0.35423 0.24598,-0.53949 0.0987,-0.27987 0.17704,-0.56629 0.25994,-0.85111 0.0472,-0.15671 0.0893,-0.31467 0.12816,-0.47337 0.003,-0.0196 0.005,-0.0389 0.008,-0.0584 z m 16.434656,0.0574 c -0.004,2.2e-4 -0.006,0.003 -0.007,0.004 0.005,0 0.0108,-0.003 0.016,-0.003 h -0.009 z" />
    </clipPath>
  </defs>
  <g
     inkscape:label="Layer 1"
     inkscape:groupmode="layer"
     id="layer1">
    <rect
       style="fill:#000000;fill-opacity:1;stroke-width:0.266;stroke-dasharray:none"
       id="rect178-2"
       width="15.915813"
       height="76.746956"
       x="92.010674"
       y="190.05949"
       ry="0.69454259"
       clip-path="url(#clipPath667)"
       transform="translate(7.8577241,-65.106857)" />
    <path
       style="fill:#000000;stroke-width:0.365744"
       d="m 91.26826,265.77367 8.94977,11.86797 8.26133,-11.86797"
       id="path222-5"
       clip-path="url(#clipPath670)"
       transform="translate(7.8577241,-65.106857)" />
    <ellipse
       style="fill:#000000;stroke-width:0.264583"
       id="path223"
       cx="124.14634"
       cy="263.41464"
       rx="33.170731"
       ry="19.268291"
       clip-path="url(#clipPath377)"
       transform="translate(7.8577241,-65.106857)" />
    <ellipse
       style="fill:#000000;stroke-width:0.264583"
       id="path304"
       cx="165.04906"
       cy="257.49036"
       rx="22.937855"
       ry="22.420458"
       clip-path="url(#clipPath503)"
       transform="matrix(2.287539,0,0,2.2892224,-274.69756,-459.41419)" />
    <ellipse
       style="fill:#000000;stroke-width:0.264583"
       id="path304-2"
       cx="165.04906"
       cy="257.49036"
       rx="22.937855"
       ry="22.420458"
       clip-path="url(#clipPath506)"
       transform="matrix(-2.287539,0,0,2.2892224,490.88715,-459.32642)" />
    <ellipse
       style="fill:#000000;stroke-width:0.264583"
       id="path493"
       cx="107.88746"
       cy="132.5381"
       rx="7.7609282"
       ry="12.762415" />
  </g>
</svg>
